<?xml version="1.0" encoding="UTF-8" standalone="no"?>
<!-- Created with Inkscape (http://www.inkscape.org/) -->

<svg
   width="300"
   height="300"
   viewBox="0 0 79.374999 79.374999"
   version="1.1"
   id="svg5"
   xmlns="http://www.w3.org/2000/svg"
   xmlns:svg="http://www.w3.org/2000/svg">
  <defs
     id="defs2" />
  <g
     id="layer1"
     style="display:inline">
    <g
       id="layer3"
       style="display:inline">
            <g
         id="eyes02"
         style="display:inline">
        <ellipse
           style="display:inline;fill:#d40000;fill-rule:evenodd;stroke-width:0.264583"
           id="ellipse927"
           cx="43.75547"
           cy="30.327862"
           rx="3.1088541"
           ry="2.9765625" />
        <ellipse
           style="display:inline;fill:#d40000;fill-rule:evenodd;stroke-width:0.264583"
           id="ellipse1011"
           cx="31.84922"
           cy="30.592445"
           rx="3.1088541"
           ry="2.9765625" />
      </g>
            <g
         id="mouth01"
         style="display:inline">
        <path
           style="display:inline;fill:#ffaaaa;stroke:#000000;stroke-width:0.181967px;stroke-linecap:butt;stroke-linejoin:miter;stroke-opacity:1"
           d="m 27.339284,41.642259 11.261873,7.460764 12.349226,-7.993676 z"
           id="path190" />
      </g>
            <g
         id="hat01"
         style="display:inline">
        <path
           style="display:inline;fill:#0000ff;stroke:#000000;stroke-width:0.264583px;stroke-linecap:butt;stroke-linejoin:miter;stroke-opacity:1"
           d="m 23.754012,21.600888 c 0.308681,-0.08819 0.607826,-0.222154 0.926042,-0.264583 0.349683,-0.04662 0.705556,0 1.058333,0 1.719792,0 3.439584,0 5.159375,0 3.79236,0 7.584723,0 11.377083,0 3.175,0 6.35,0 9.525,0 0.414925,0 4.100256,0.331123 4.497917,0.132292 0.11842,-0.05921 -0.783886,-3.235871 -0.926042,-3.571875 -1.510837,-3.571071 -4.904298,-7.532428 -8.73125,-8.8635418 -0.515178,-0.179192 -1.060801,-0.255072 -1.5875,-0.396875 -0.619987,-0.16692 -1.218752,-0.423611 -1.852083,-0.529166 -0.434972,-0.07249 -0.883467,0.03662 -1.322917,0 -0.621474,-0.05179 -1.230039,-0.220152 -1.852083,-0.264584 -3.684122,-0.263151 -7.44252,0.199045 -10.715625,1.984375 -1.651465,0.9007998 -2.981193,1.9164258 -4.365625,3.1749998 -0.782984,0.711804 -0.531589,0.268217 -1.058333,1.058334 -0.942902,1.414352 -0.01456,-0.01013 -0.529167,1.190624 -0.321522,0.750219 -0.750611,1.479654 -1.058333,2.248959 -0.13167,0.329174 -0.143973,0.756809 -0.264583,1.058333 -0.233457,0.583641 -0.590158,1.109016 -0.79375,1.719792 -0.113168,0.339504 0.132291,0.36863 0.132291,0.661458 0,0.254659 -0.07322,0.588243 0.132292,0.79375 0.356155,0.356155 0.959296,-0.143376 1.322917,-0.264583 0.277258,-0.09242 0.679824,0.05022 0.926041,0.132291 z"
           id="path387" />
      </g>
    </g>
  </g>
</svg>
